# xmcd
#
# Track frame offsets:
#	150
#	15662
#	31647
#	43047
#	54595
#	69715
#	82840
#	97787
#	112307
#	122832
#	133467
#	146860
#	160350
#	173712
#	189212
#	206792
#	219612
#	234400
#
# Disc length: 3299 seconds
#
# Revision: 2
# Processed by: cddbd v1.5.2PL0 Copyright (c) Steve Scherf et al.
# Submitted via: audiograbber 1.83.01
#
DISCID=030ce112
DTITLE=Various Artist - Easy Country  [CD1)
DYEAR=1996
DGENRE=Oldies
TTITLE0=B.J. Thomas - (Hey Won't You Play) Another Somebody Done Somebody Wrong
TTITLE0=Song
TTITLE1=T.G. Sheppard - Party Time
TTITLE2=Dave and Sugar - Golden Tears
TTITLE3=Kendalls - Heaven's Just A Sin Away
TTITLE4=Alabama - Love In The First Degree
TTITLE5=Crystal Gayle - Talking In Your Sleep
TTITLE6=Sylvia - Nobody
TTITLE7=Earl Thomas Conley - Holding Her And Loving You
TTITLE8=Barbara Mandrell - Sleeping Single In A Double Bed
TTITLE9=Merle Haggard and The Strangers - Today I Started Loving You Again
TTITLE10=Loretta Lynn and Conway Twitty - Feelings
TTITLE11=Waylon Jennings - Amanda
TTITLE12=Dolly Parton - Here You Come Again
TTITLE13=Statler Brothers - Elizabeth
TTITLE14=Razzy Bailey - I Keep Coming Back
TTITLE15=George Jones - Still Doin' Time
TTITLE16=Ronnie Milsap - (There's) No Gettin' Over Me
TTITLE17=Charlie Rich - Behind Closed Doors
EXTD=
EXTT0=
EXTT1=
EXTT2=
EXTT3=
EXTT4=
EXTT5=
EXTT6=
EXTT7=
EXTT8=
EXTT9=
EXTT10=
EXTT11=
EXTT12=
EXTT13=
EXTT14=
EXTT15=
EXTT16=
EXTT17=
PLAYORDER=
